<svg width="80" height="79" viewBox="0 0 80 79" fill="none" xmlns="http://www.w3.org/2000/svg">
<path d="M37.1533 51.8667C37.1533 48.97 36.3962 46.5408 34.8821 44.5691C33.809 43.2129 32.3541 42.3209 30.514 41.8963C28.7036 41.4749 26.9919 41.4453 25.4449 41.8041C24.9182 38.677 25.774 35.3656 27.9465 31.8567C30.119 28.351 32.9334 25.7111 36.3666 23.9468L31.1658 16.4583C28.5324 17.7618 26.0308 19.4142 23.7266 21.4122C21.3895 23.4103 19.3158 25.7078 17.4724 28.305C15.6291 30.9021 14.2466 33.835 13.3579 37.1595C12.4691 40.4841 12.2189 43.8745 12.6436 47.3637C13.1966 51.972 14.6844 55.6587 17.1071 58.3908C19.5264 61.1558 22.5449 62.5383 26.1526 62.5383C29.329 62.5383 31.9657 61.5837 34.0526 59.6482C36.1197 57.7522 37.1467 55.1551 37.1467 51.8535L37.1533 51.8634V51.8667ZM67.1865 51.8667C67.1865 48.97 66.4294 46.5408 64.9152 44.5691C63.8422 43.1866 62.3807 42.2913 60.5472 41.8798C58.7039 41.4716 57.0119 41.4519 55.478 41.8074C54.9514 38.7132 55.7743 35.3886 57.9468 31.8665C60.1193 28.3774 62.9304 25.744 66.3636 23.9665L61.1759 16.4583C58.5426 17.7618 56.0574 19.4142 53.7367 21.4122C51.4062 23.4103 49.3259 25.7078 47.5023 28.305C45.6722 30.9054 44.3094 33.835 43.4207 37.1595C42.522 40.4512 42.285 43.8745 42.7064 47.3637C43.2495 51.972 44.7307 55.6587 47.1501 58.3908C49.5596 61.1328 52.5682 62.5054 56.1759 62.5054C59.3589 62.5054 61.9955 61.5508 64.0824 59.6219C66.1463 57.7259 67.1832 55.1288 67.1832 51.8272V51.8601L67.1865 51.8667Z" fill="#EC2846"/>
</svg>
