<svg width="90" height="48" viewBox="0 0 90 48" fill="none" xmlns="http://www.w3.org/2000/svg">
<path d="M88.9655 22.2733L68.4107 1.71885C67.9353 1.24307 67.3007 0.980957 66.624 0.980957C65.9473 0.980957 65.3127 1.24307 64.8373 1.71885L63.3235 3.23219C62.3386 4.21831 62.3386 5.82102 63.3235 6.80563L80.5839 24.066L63.3044 41.3455C62.829 41.8213 62.5665 42.4555 62.5665 43.1318C62.5665 43.8089 62.829 44.4432 63.3044 44.9193L64.8181 46.4323C65.2939 46.9081 65.9281 47.1702 66.6048 47.1702C67.2815 47.1702 67.9161 46.9081 68.3915 46.4323L88.9655 25.8591C89.442 25.3818 89.7038 24.7446 89.7023 24.0671C89.7038 23.3871 89.442 22.7502 88.9655 22.2733Z" fill="#605F5F"/>
<path d="M1.3198 25.8776L21.8746 46.432C22.35 46.9078 22.9846 47.1699 23.6613 47.1699C24.338 47.1699 24.9726 46.9078 25.448 46.432L26.9617 44.9187C27.9467 43.9326 27.9467 42.3299 26.9617 41.3452L9.70138 24.0849L26.9809 6.80538C27.4563 6.32959 27.7188 5.69534 27.7188 5.01903C27.7188 4.34197 27.4563 3.70772 26.9809 3.23156L25.4672 1.71859C24.9914 1.24281 24.3571 0.980701 23.6805 0.980701C23.0038 0.980701 22.3691 1.24281 21.8937 1.71859L1.3198 22.2918C0.843264 22.7691 0.581528 23.4063 0.583029 24.0838C0.581528 24.7638 0.843264 25.4007 1.3198 25.8776Z" fill="#605F5F"/>
</svg>
