<svg width="300" height="40" viewBox="0 0 300 40" fill="none" xmlns="http://www.w3.org/2000/svg">
<path d="M57.468 29.852L44.0973 9.90381L7.00433 15.8344L31.9127 31.5773L57.468 29.852Z" fill="#ED2582"/>
<path opacity="0.3" d="M7.00433 15.8345L57.468 29.8522L31.9127 31.5774L7.00433 15.8345Z" fill="#231F20"/>
<path opacity="0.3" d="M44.0973 9.90381L7.00433 15.8344L50.1357 18.9614L44.0973 9.90381Z" fill="white"/>
<path d="M50.5672 25.7545L35.0399 17.5596L8.83765 33.7338L34.8243 33.3025L50.5672 25.7545Z" fill="#E8E9E9"/>
<path d="M8.83765 33.7342L50.5672 25.7549L34.8243 33.3029L8.83765 33.7342Z" fill="#BEBFC2"/>
<path opacity="0.3" d="M35.0399 17.5596L8.83765 33.7338L42.0488 21.2257L35.0399 17.5596Z" fill="white"/>
<path d="M67.3884 20.1475L63.3988 6.88466L39.5687 0.954102L51.4298 14.9718L67.3884 20.1475Z" fill="#6CC4A0"/>
<path opacity="0.3" d="M39.5687 0.954102L67.3884 20.1475L51.4298 14.9718L39.5687 0.954102Z" fill="#231F20"/>
<path opacity="0.3" d="M63.3988 6.88466L39.5687 0.954102L65.2318 12.8152L63.3988 6.88466Z" fill="white"/>
<path d="M0.642578 23.1665L61.3499 36.7529L62.2125 5.80615L0.642578 23.1665Z" fill="url(#paint0_linear_15_542)"/>
<path opacity="0.3" d="M40.7547 26.7248L0.642578 23.1665L62.2125 5.80615L40.7547 26.7248Z" fill="white"/>
<path opacity="0.4" d="M0.642578 23.1665L52.508 15.4029L62.2125 5.80615L0.642578 23.1665Z" fill="white"/>
<path opacity="0.5" d="M61.3498 36.7529L40.7546 26.7248L62.2125 5.80615L61.3498 36.7529Z" fill="#D02C27"/>
<path d="M41.0782 18.6383L51.6454 9.90421L15.7385 9.14941L41.0782 18.6383Z" fill="#A9DA0C"/>
<path d="M15.7385 9.14941L32.2363 17.7757L41.0782 18.6383L15.7385 9.14941Z" fill="#65BC46"/>
<path opacity="0.3" d="M51.6454 9.90421L15.7385 9.14941L46.3618 14.2173L51.6454 9.90421Z" fill="white"/>
<path opacity="0.5" d="M41.0782 18.6375L16.4933 22.9507L32.2363 17.7749L41.0782 18.6375Z" fill="#231F20"/>
<path d="M48.1949 16.481L42.2644 21.8724L33.6381 16.8044L48.1949 16.481Z" fill="#DCDDDE"/>
<path d="M42.2644 21.8726L37.5199 21.7648L33.6381 16.8047L42.2644 21.8726Z" fill="#A1A3A6"/>
<path opacity="0.3" d="M33.6381 16.8044L44.9601 19.5002L48.1949 16.481L33.6381 16.8044Z" fill="white"/>
<path opacity="0.5" d="M42.2643 21.873L30.8345 24.353L37.5199 21.7651L42.2643 21.873Z" fill="#231F20"/>
<path opacity="0.2" d="M37.4119 29.2051L33.7458 30.499L38.2746 31.5773L37.4119 29.2051Z" fill="#231F20"/>
<path d="M42.3721 29.4207L37.412 29.2051L24.5804 39.2331L51.6454 33.5182L42.3721 29.4207Z" fill="#6CC4A0"/>
<path opacity="0.3" d="M24.5804 39.2331L37.412 29.2051L42.3721 29.4207L24.5804 39.2331Z" fill="white"/>
<path opacity="0.3" d="M24.5804 39.2333L46.7931 31.3618L51.6454 33.5184L24.5804 39.2333Z" fill="#231F20"/>
<path opacity="0.1" d="M40.7546 26.725L49.8122 31.146L61.4577 32.9791L62.1046 10.5508L50.9983 16.697L40.7546 26.725Z" fill="#231F20"/>
<path d="M62.2125 5.80615L51.7531 20.7943L61.3498 36.7529L77.2006 32.4397L82.2685 21.9804L77.2006 10.3349L62.2125 5.80615Z" fill="#48373F"/>
<path d="M62.2125 5.80615L51.7531 20.7943L61.3498 36.7529L77.2006 32.4397L82.2685 21.9804L77.2006 10.3349L62.2125 5.80615Z" fill="url(#paint1_radial_15_542)"/>
<path d="M62.2124 5.80615L62.1046 5.91398L46.9008 23.9213L61.3498 36.7529L51.7531 20.7943L62.2124 5.80615Z" fill="#35111F"/>
<path d="M58.2229 36.6451V6.45312H75.0441V10.6584H63.0752V18.2064H75.0441V22.5195H63.0752V36.6451H58.2229Z" fill="#EDEDEE"/>
<path d="M63.6144 37.1843H57.576V5.91406H75.4755V11.1976H63.6144V17.5595H75.5833V22.9509H63.6144V37.1843ZM58.7621 36.106H62.5361V21.8727H74.505V18.6378H62.5361V10.0115H74.505V6.99235H58.7621V36.106Z" fill="#EDEDEE"/>
<path opacity="0.2" d="M51.7531 20.7944L82.2685 21.9805L77.2006 32.4399L61.3498 36.753L51.7531 20.7944Z" fill="#231F20"/>
<path opacity="0.2" d="M51.7531 20.7944L77.2006 32.4399L61.3498 36.753L51.7531 20.7944Z" fill="#231F20"/>
<path opacity="0.3" d="M62.2127 5.80615L82.2687 21.9804L77.2008 10.3349L62.2127 5.80615Z" fill="white"/>
<path d="M106.206 13.8343V17.2593H99.0564V20.9593H104.406V24.2843H99.0564V31.3843H94.7814V13.8343H106.206ZM112.728 12.8843V31.3843H108.453V12.8843H112.728ZM114.976 24.3843C114.976 22.9509 115.243 21.6926 115.776 20.6093C116.326 19.5259 117.068 18.6926 118.001 18.1093C118.935 17.5259 119.976 17.2343 121.126 17.2343C122.11 17.2343 122.968 17.4343 123.701 17.8343C124.451 18.2343 125.026 18.7593 125.426 19.4093V17.4343H129.701V31.3843H125.426V29.4093C125.01 30.0593 124.426 30.5843 123.676 30.9843C122.943 31.3843 122.085 31.5843 121.101 31.5843C119.968 31.5843 118.935 31.2926 118.001 30.7093C117.068 30.1093 116.326 29.2676 115.776 28.1843C115.243 27.0843 114.976 25.8176 114.976 24.3843ZM125.426 24.4093C125.426 23.3426 125.126 22.5009 124.526 21.8843C123.943 21.2676 123.226 20.9593 122.376 20.9593C121.526 20.9593 120.801 21.2676 120.201 21.8843C119.618 22.4843 119.326 23.3176 119.326 24.3843C119.326 25.4509 119.618 26.3009 120.201 26.9343C120.801 27.5509 121.526 27.8593 122.376 27.8593C123.226 27.8593 123.943 27.5509 124.526 26.9343C125.126 26.3176 125.426 25.4759 125.426 24.4093ZM138.469 31.5843C137.252 31.5843 136.169 31.3759 135.219 30.9593C134.269 30.5426 133.519 29.9759 132.969 29.2593C132.419 28.5259 132.111 27.7093 132.044 26.8093H136.269C136.319 27.2926 136.544 27.6843 136.944 27.9843C137.344 28.2843 137.836 28.4343 138.419 28.4343C138.952 28.4343 139.361 28.3343 139.644 28.1343C139.944 27.9176 140.094 27.6426 140.094 27.3093C140.094 26.9093 139.886 26.6176 139.469 26.4343C139.052 26.2343 138.377 26.0176 137.444 25.7843C136.444 25.5509 135.611 25.3093 134.944 25.0593C134.277 24.7926 133.702 24.3843 133.219 23.8343C132.736 23.2676 132.494 22.5093 132.494 21.5593C132.494 20.7593 132.711 20.0343 133.144 19.3843C133.594 18.7176 134.244 18.1926 135.094 17.8093C135.961 17.4259 136.986 17.2343 138.169 17.2343C139.919 17.2343 141.294 17.6676 142.294 18.5343C143.311 19.4009 143.894 20.5509 144.044 21.9843H140.094C140.027 21.5009 139.811 21.1176 139.444 20.8343C139.094 20.5509 138.627 20.4093 138.044 20.4093C137.544 20.4093 137.161 20.5093 136.894 20.7093C136.627 20.8926 136.494 21.1509 136.494 21.4843C136.494 21.8843 136.702 22.1843 137.119 22.3843C137.552 22.5843 138.219 22.7843 139.119 22.9843C140.152 23.2509 140.994 23.5176 141.644 23.7843C142.294 24.0343 142.861 24.4509 143.344 25.0343C143.844 25.6009 144.102 26.3676 144.119 27.3343C144.119 28.1509 143.886 28.8843 143.419 29.5343C142.969 30.1676 142.311 30.6676 141.444 31.0343C140.594 31.4009 139.602 31.5843 138.469 31.5843ZM155.31 17.2843C156.91 17.2843 158.193 17.8176 159.16 18.8843C160.126 19.9343 160.61 21.3843 160.61 23.2343V31.3843H156.36V23.8093C156.36 22.8759 156.118 22.1509 155.635 21.6343C155.151 21.1176 154.501 20.8593 153.685 20.8593C152.868 20.8593 152.218 21.1176 151.735 21.6343C151.251 22.1509 151.01 22.8759 151.01 23.8093V31.3843H146.735V12.8843H151.01V19.3093C151.443 18.6926 152.035 18.2009 152.785 17.8343C153.535 17.4676 154.376 17.2843 155.31 17.2843ZM176.205 13.8343V17.2593H171.555V31.3843H167.28V17.2593H162.63V13.8343H176.205ZM191.501 24.1843C191.501 24.5843 191.476 25.0009 191.426 25.4343H181.751C181.817 26.3009 182.092 26.9676 182.576 27.4343C183.076 27.8843 183.684 28.1093 184.401 28.1093C185.467 28.1093 186.209 27.6593 186.626 26.7593H191.176C190.942 27.6759 190.517 28.5009 189.901 29.2343C189.301 29.9676 188.542 30.5426 187.626 30.9593C186.709 31.3759 185.684 31.5843 184.551 31.5843C183.184 31.5843 181.967 31.2926 180.901 30.7093C179.834 30.1259 179.001 29.2926 178.401 28.2093C177.801 27.1259 177.501 25.8593 177.501 24.4093C177.501 22.9593 177.792 21.6926 178.376 20.6093C178.976 19.5259 179.809 18.6926 180.876 18.1093C181.942 17.5259 183.167 17.2343 184.551 17.2343C185.901 17.2343 187.101 17.5176 188.151 18.0843C189.201 18.6509 190.017 19.4593 190.601 20.5093C191.201 21.5593 191.501 22.7843 191.501 24.1843ZM187.126 23.0593C187.126 22.3259 186.876 21.7426 186.376 21.3093C185.876 20.8759 185.251 20.6593 184.501 20.6593C183.784 20.6593 183.176 20.8676 182.676 21.2843C182.192 21.7009 181.892 22.2926 181.776 23.0593H187.126ZM199.431 31.5843C198.214 31.5843 197.131 31.3759 196.181 30.9593C195.231 30.5426 194.481 29.9759 193.931 29.2593C193.381 28.5259 193.073 27.7093 193.006 26.8093H197.231C197.281 27.2926 197.506 27.6843 197.906 27.9843C198.306 28.2843 198.798 28.4343 199.381 28.4343C199.914 28.4343 200.323 28.3343 200.606 28.1343C200.906 27.9176 201.056 27.6426 201.056 27.3093C201.056 26.9093 200.848 26.6176 200.431 26.4343C200.014 26.2343 199.339 26.0176 198.406 25.7843C197.406 25.5509 196.573 25.3093 195.906 25.0593C195.239 24.7926 194.664 24.3843 194.181 23.8343C193.698 23.2676 193.456 22.5093 193.456 21.5593C193.456 20.7593 193.673 20.0343 194.106 19.3843C194.556 18.7176 195.206 18.1926 196.056 17.8093C196.923 17.4259 197.948 17.2343 199.131 17.2343C200.881 17.2343 202.256 17.6676 203.256 18.5343C204.273 19.4009 204.856 20.5509 205.006 21.9843H201.056C200.989 21.5009 200.773 21.1176 200.406 20.8343C200.056 20.5509 199.589 20.4093 199.006 20.4093C198.506 20.4093 198.123 20.5093 197.856 20.7093C197.589 20.8926 197.456 21.1509 197.456 21.4843C197.456 21.8843 197.664 22.1843 198.081 22.3843C198.514 22.5843 199.181 22.7843 200.081 22.9843C201.114 23.2509 201.956 23.5176 202.606 23.7843C203.256 24.0343 203.823 24.4509 204.306 25.0343C204.806 25.6009 205.064 26.3676 205.081 27.3343C205.081 28.1509 204.848 28.8843 204.381 29.5343C203.931 30.1676 203.273 30.6676 202.406 31.0343C201.556 31.4009 200.564 31.5843 199.431 31.5843ZM215.471 27.7593V31.3843H213.296C211.746 31.3843 210.538 31.0093 209.671 30.2593C208.805 29.4926 208.371 28.2509 208.371 26.5343V20.9843H206.671V17.4343H208.371V14.0343H212.646V17.4343H215.446V20.9843H212.646V26.5843C212.646 27.0009 212.746 27.3009 212.946 27.4843C213.146 27.6676 213.48 27.7593 213.946 27.7593H215.471ZM223.528 31.5843C222.311 31.5843 221.228 31.3759 220.278 30.9593C219.328 30.5426 218.578 29.9759 218.028 29.2593C217.478 28.5259 217.169 27.7093 217.103 26.8093H221.328C221.378 27.2926 221.603 27.6843 222.003 27.9843C222.403 28.2843 222.894 28.4343 223.478 28.4343C224.011 28.4343 224.419 28.3343 224.703 28.1343C225.003 27.9176 225.153 27.6426 225.153 27.3093C225.153 26.9093 224.944 26.6176 224.528 26.4343C224.111 26.2343 223.436 26.0176 222.503 25.7843C221.503 25.5509 220.669 25.3093 220.003 25.0593C219.336 24.7926 218.761 24.3843 218.278 23.8343C217.794 23.2676 217.553 22.5093 217.553 21.5593C217.553 20.7593 217.769 20.0343 218.203 19.3843C218.653 18.7176 219.303 18.1926 220.153 17.8093C221.019 17.4259 222.044 17.2343 223.228 17.2343C224.978 17.2343 226.353 17.6676 227.353 18.5343C228.369 19.4009 228.953 20.5509 229.103 21.9843H225.153C225.086 21.5009 224.869 21.1176 224.503 20.8343C224.153 20.5509 223.686 20.4093 223.103 20.4093C222.603 20.4093 222.219 20.5093 221.953 20.7093C221.686 20.8926 221.553 21.1509 221.553 21.4843C221.553 21.8843 221.761 22.1843 222.178 22.3843C222.611 22.5843 223.278 22.7843 224.178 22.9843C225.211 23.2509 226.053 23.5176 226.703 23.7843C227.353 24.0343 227.919 24.4509 228.403 25.0343C228.903 25.6009 229.161 26.3676 229.178 27.3343C229.178 28.1509 228.944 28.8843 228.478 29.5343C228.028 30.1676 227.369 30.6676 226.503 31.0343C225.653 31.4009 224.661 31.5843 223.528 31.5843Z" fill="white"/>
<defs>
<linearGradient id="paint0_linear_15_542" x1="28.8117" y1="11.2017" x2="65.7682" y2="57.3057" gradientUnits="userSpaceOnUse">
<stop stop-color="#FBAA19"/>
<stop offset="0.3065" stop-color="#EE2424"/>
<stop offset="1" stop-color="#813092"/>
</linearGradient>
<radialGradient id="paint1_radial_15_542" cx="0" cy="0" r="1" gradientUnits="userSpaceOnUse" gradientTransform="translate(91.241 39.1439) scale(32.2249)">
<stop offset="0.2864" stop-color="#EC008C"/>
<stop offset="0.4297" stop-color="#B3006A"/>
<stop offset="0.6353" stop-color="#67003D"/>
<stop offset="0.8057" stop-color="#2F001C"/>
<stop offset="0.9319" stop-color="#0D0008"/>
<stop offset="1"/>
</radialGradient>
</defs>
</svg>
