<svg width="680" height="537" viewBox="0 0 680 537" fill="none" xmlns="http://www.w3.org/2000/svg">
<g filter="url(#filter0_d_202_10)">
<rect x="50" y="30" width="280.254" height="308.358" rx="20" fill="white"/>
</g>
<g filter="url(#filter1_d_202_10)">
<rect x="349" y="158" width="280.254" height="308.361" rx="20" fill="white"/>
</g>
<path d="M430.77 310.65L404.37 375H382.26L408.88 313.18H377.53V294.7H430.77V310.65Z" fill="#EC2846"/>
<path d="M382.846 261.382C382.846 260.022 383.159 258.802 383.786 257.722C384.426 256.642 385.286 255.802 386.366 255.202C387.459 254.589 388.653 254.282 389.946 254.282C391.426 254.282 392.739 254.649 393.886 255.382C395.046 256.102 395.886 257.129 396.406 258.462H393.666C393.306 257.729 392.806 257.182 392.166 256.822C391.526 256.462 390.786 256.282 389.946 256.282C389.026 256.282 388.206 256.489 387.486 256.902C386.766 257.316 386.199 257.909 385.786 258.682C385.386 259.456 385.186 260.356 385.186 261.382C385.186 262.409 385.386 263.309 385.786 264.082C386.199 264.856 386.766 265.456 387.486 265.882C388.206 266.296 389.026 266.502 389.946 266.502C390.786 266.502 391.526 266.322 392.166 265.962C392.806 265.602 393.306 265.056 393.666 264.322H396.406C395.886 265.656 395.046 266.682 393.886 267.402C392.739 268.122 391.426 268.482 389.946 268.482C388.639 268.482 387.446 268.182 386.366 267.582C385.286 266.969 384.426 266.122 383.786 265.042C383.159 263.962 382.846 262.742 382.846 261.382ZM403.855 268.542C402.815 268.542 401.875 268.309 401.035 267.842C400.195 267.362 399.535 266.696 399.055 265.842C398.575 264.976 398.335 263.976 398.335 262.842C398.335 261.722 398.581 260.729 399.075 259.862C399.568 258.996 400.241 258.329 401.095 257.862C401.948 257.396 402.901 257.162 403.955 257.162C405.008 257.162 405.961 257.396 406.815 257.862C407.668 258.329 408.341 258.996 408.835 259.862C409.328 260.729 409.575 261.722 409.575 262.842C409.575 263.962 409.321 264.956 408.815 265.822C408.308 266.689 407.615 267.362 406.735 267.842C405.868 268.309 404.908 268.542 403.855 268.542ZM403.855 266.562C404.441 266.562 404.988 266.422 405.495 266.142C406.015 265.862 406.435 265.442 406.755 264.882C407.075 264.322 407.235 263.642 407.235 262.842C407.235 262.042 407.081 261.369 406.775 260.822C406.468 260.262 406.061 259.842 405.555 259.562C405.048 259.282 404.501 259.142 403.915 259.142C403.328 259.142 402.781 259.282 402.275 259.562C401.781 259.842 401.388 260.262 401.095 260.822C400.801 261.369 400.655 262.042 400.655 262.842C400.655 264.029 400.955 264.949 401.555 265.602C402.168 266.242 402.935 266.562 403.855 266.562ZM425.169 257.162C426.035 257.162 426.809 257.342 427.489 257.702C428.182 258.062 428.722 258.596 429.109 259.302C429.509 260.009 429.709 260.862 429.709 261.862V268.362H427.449V262.202C427.449 261.216 427.202 260.462 426.709 259.942C426.215 259.409 425.542 259.142 424.689 259.142C423.835 259.142 423.155 259.409 422.649 259.942C422.155 260.462 421.909 261.216 421.909 262.202V268.362H419.649V262.202C419.649 261.216 419.402 260.462 418.909 259.942C418.415 259.409 417.742 259.142 416.889 259.142C416.035 259.142 415.355 259.409 414.849 259.942C414.355 260.462 414.109 261.216 414.109 262.202V268.362H411.829V257.342H414.109V258.602C414.482 258.149 414.955 257.796 415.529 257.542C416.102 257.289 416.715 257.162 417.369 257.162C418.249 257.162 419.035 257.349 419.729 257.722C420.422 258.096 420.955 258.636 421.329 259.342C421.662 258.676 422.182 258.149 422.889 257.762C423.595 257.362 424.355 257.162 425.169 257.162ZM434.89 258.962C435.277 258.456 435.803 258.029 436.47 257.682C437.137 257.336 437.89 257.162 438.73 257.162C439.69 257.162 440.563 257.402 441.35 257.882C442.15 258.349 442.777 259.009 443.23 259.862C443.683 260.716 443.91 261.696 443.91 262.802C443.91 263.909 443.683 264.902 443.23 265.782C442.777 266.649 442.15 267.329 441.35 267.822C440.563 268.302 439.69 268.542 438.73 268.542C437.89 268.542 437.143 268.376 436.49 268.042C435.837 267.696 435.303 267.269 434.89 266.762V273.602H432.61V257.342H434.89V258.962ZM441.59 262.802C441.59 262.042 441.43 261.389 441.11 260.842C440.803 260.282 440.39 259.862 439.87 259.582C439.363 259.289 438.817 259.142 438.23 259.142C437.657 259.142 437.11 259.289 436.59 259.582C436.083 259.876 435.67 260.302 435.35 260.862C435.043 261.422 434.89 262.082 434.89 262.842C434.89 263.602 435.043 264.269 435.35 264.842C435.67 265.402 436.083 265.829 436.59 266.122C437.11 266.416 437.657 266.562 438.23 266.562C438.817 266.562 439.363 266.416 439.87 266.122C440.39 265.816 440.803 265.376 441.11 264.802C441.43 264.229 441.59 263.562 441.59 262.802ZM448.445 253.562V268.362H446.165V253.562H448.445ZM461.538 262.582C461.538 262.996 461.511 263.369 461.458 263.702H453.038C453.105 264.582 453.431 265.289 454.018 265.822C454.605 266.356 455.325 266.622 456.178 266.622C457.405 266.622 458.271 266.109 458.778 265.082H461.238C460.905 266.096 460.298 266.929 459.418 267.582C458.551 268.222 457.471 268.542 456.178 268.542C455.125 268.542 454.178 268.309 453.338 267.842C452.511 267.362 451.858 266.696 451.378 265.842C450.911 264.976 450.678 263.976 450.678 262.842C450.678 261.709 450.905 260.716 451.358 259.862C451.825 258.996 452.471 258.329 453.298 257.862C454.138 257.396 455.098 257.162 456.178 257.162C457.218 257.162 458.145 257.389 458.958 257.842C459.771 258.296 460.405 258.936 460.858 259.762C461.311 260.576 461.538 261.516 461.538 262.582ZM459.158 261.862C459.145 261.022 458.845 260.349 458.258 259.842C457.671 259.336 456.945 259.082 456.078 259.082C455.291 259.082 454.618 259.336 454.058 259.842C453.498 260.336 453.165 261.009 453.058 261.862H459.158ZM466.442 259.202V265.302C466.442 265.716 466.535 266.016 466.722 266.202C466.922 266.376 467.255 266.462 467.722 266.462H469.122V268.362H467.322C466.295 268.362 465.508 268.122 464.962 267.642C464.415 267.162 464.142 266.382 464.142 265.302V259.202H462.842V257.342H464.142V254.602H466.442V257.342H469.122V259.202H466.442ZM481.323 262.582C481.323 262.996 481.296 263.369 481.243 263.702H472.823C472.89 264.582 473.216 265.289 473.803 265.822C474.39 266.356 475.11 266.622 475.963 266.622C477.19 266.622 478.056 266.109 478.563 265.082H481.023C480.69 266.096 480.083 266.929 479.203 267.582C478.336 268.222 477.256 268.542 475.963 268.542C474.91 268.542 473.963 268.309 473.123 267.842C472.296 267.362 471.643 266.696 471.163 265.842C470.696 264.976 470.463 263.976 470.463 262.842C470.463 261.709 470.69 260.716 471.143 259.862C471.61 258.996 472.256 258.329 473.083 257.862C473.923 257.396 474.883 257.162 475.963 257.162C477.003 257.162 477.93 257.389 478.743 257.842C479.556 258.296 480.19 258.936 480.643 259.762C481.096 260.576 481.323 261.516 481.323 262.582ZM478.943 261.862C478.93 261.022 478.63 260.349 478.043 259.842C477.456 259.336 476.73 259.082 475.863 259.082C475.076 259.082 474.403 259.336 473.843 259.842C473.283 260.336 472.95 261.009 472.843 261.862H478.943ZM482.807 262.802C482.807 261.696 483.034 260.716 483.487 259.862C483.954 259.009 484.58 258.349 485.367 257.882C486.167 257.402 487.054 257.162 488.027 257.162C488.747 257.162 489.454 257.322 490.147 257.642C490.854 257.949 491.414 258.362 491.827 258.882V253.562H494.127V268.362H491.827V266.702C491.454 267.236 490.934 267.676 490.267 268.022C489.614 268.369 488.86 268.542 488.007 268.542C487.047 268.542 486.167 268.302 485.367 267.822C484.58 267.329 483.954 266.649 483.487 265.782C483.034 264.902 482.807 263.909 482.807 262.802ZM491.827 262.842C491.827 262.082 491.667 261.422 491.347 260.862C491.04 260.302 490.634 259.876 490.127 259.582C489.62 259.289 489.074 259.142 488.487 259.142C487.9 259.142 487.354 259.289 486.847 259.582C486.34 259.862 485.927 260.282 485.607 260.842C485.3 261.389 485.147 262.042 485.147 262.802C485.147 263.562 485.3 264.229 485.607 264.802C485.927 265.376 486.34 265.816 486.847 266.122C487.367 266.416 487.914 266.562 488.487 266.562C489.074 266.562 489.62 266.416 490.127 266.122C490.634 265.829 491.04 265.402 491.347 264.842C491.667 264.269 491.827 263.602 491.827 262.842ZM511.297 254.462V256.322H507.597V268.362H505.317V256.322H501.597V254.462H511.297ZM523.706 262.582C523.706 262.996 523.679 263.369 523.626 263.702H515.206C515.273 264.582 515.599 265.289 516.186 265.822C516.773 266.356 517.493 266.622 518.346 266.622C519.573 266.622 520.439 266.109 520.946 265.082H523.406C523.073 266.096 522.466 266.929 521.586 267.582C520.719 268.222 519.639 268.542 518.346 268.542C517.293 268.542 516.346 268.309 515.506 267.842C514.679 267.362 514.026 266.696 513.546 265.842C513.079 264.976 512.846 263.976 512.846 262.842C512.846 261.709 513.073 260.716 513.526 259.862C513.993 258.996 514.639 258.329 515.466 257.862C516.306 257.396 517.266 257.162 518.346 257.162C519.386 257.162 520.313 257.389 521.126 257.842C521.939 258.296 522.573 258.936 523.026 259.762C523.479 260.576 523.706 261.516 523.706 262.582ZM521.326 261.862C521.313 261.022 521.013 260.349 520.426 259.842C519.839 259.336 519.113 259.082 518.246 259.082C517.459 259.082 516.786 259.336 516.226 259.842C515.666 260.336 515.333 261.009 515.226 261.862H521.326ZM529.95 268.542C529.083 268.542 528.303 268.389 527.61 268.082C526.93 267.762 526.39 267.336 525.99 266.802C525.59 266.256 525.376 265.649 525.35 264.982H527.71C527.75 265.449 527.97 265.842 528.37 266.162C528.783 266.469 529.296 266.622 529.91 266.622C530.55 266.622 531.043 266.502 531.39 266.262C531.75 266.009 531.93 265.689 531.93 265.302C531.93 264.889 531.73 264.582 531.33 264.382C530.943 264.182 530.323 263.962 529.47 263.722C528.643 263.496 527.97 263.276 527.45 263.062C526.93 262.849 526.476 262.522 526.09 262.082C525.716 261.642 525.53 261.062 525.53 260.342C525.53 259.756 525.703 259.222 526.05 258.742C526.396 258.249 526.89 257.862 527.53 257.582C528.183 257.302 528.93 257.162 529.77 257.162C531.023 257.162 532.03 257.482 532.79 258.122C533.563 258.749 533.976 259.609 534.03 260.702H531.75C531.71 260.209 531.51 259.816 531.15 259.522C530.79 259.229 530.303 259.082 529.69 259.082C529.09 259.082 528.63 259.196 528.31 259.422C527.99 259.649 527.83 259.949 527.83 260.322C527.83 260.616 527.936 260.862 528.15 261.062C528.363 261.262 528.623 261.422 528.93 261.542C529.236 261.649 529.69 261.789 530.29 261.962C531.09 262.176 531.743 262.396 532.25 262.622C532.77 262.836 533.216 263.156 533.59 263.582C533.963 264.009 534.156 264.576 534.17 265.282C534.17 265.909 533.996 266.469 533.65 266.962C533.303 267.456 532.81 267.842 532.17 268.122C531.543 268.402 530.803 268.542 529.95 268.542ZM539.293 259.202V265.302C539.293 265.716 539.387 266.016 539.573 266.202C539.773 266.376 540.107 266.462 540.573 266.462H541.973V268.362H540.173C539.147 268.362 538.36 268.122 537.813 267.642C537.267 267.162 536.993 266.382 536.993 265.302V259.202H535.693V257.342H536.993V254.602H539.293V257.342H541.973V259.202H539.293ZM548.075 268.542C547.208 268.542 546.428 268.389 545.735 268.082C545.055 267.762 544.515 267.336 544.115 266.802C543.715 266.256 543.501 265.649 543.475 264.982H545.835C545.875 265.449 546.095 265.842 546.495 266.162C546.908 266.469 547.421 266.622 548.035 266.622C548.675 266.622 549.168 266.502 549.515 266.262C549.875 266.009 550.055 265.689 550.055 265.302C550.055 264.889 549.855 264.582 549.455 264.382C549.068 264.182 548.448 263.962 547.595 263.722C546.768 263.496 546.095 263.276 545.575 263.062C545.055 262.849 544.601 262.522 544.215 262.082C543.841 261.642 543.655 261.062 543.655 260.342C543.655 259.756 543.828 259.222 544.175 258.742C544.521 258.249 545.015 257.862 545.655 257.582C546.308 257.302 547.055 257.162 547.895 257.162C549.148 257.162 550.155 257.482 550.915 258.122C551.688 258.749 552.101 259.609 552.155 260.702H549.875C549.835 260.209 549.635 259.816 549.275 259.522C548.915 259.229 548.428 259.082 547.815 259.082C547.215 259.082 546.755 259.196 546.435 259.422C546.115 259.649 545.955 259.949 545.955 260.322C545.955 260.616 546.061 260.862 546.275 261.062C546.488 261.262 546.748 261.422 547.055 261.542C547.361 261.649 547.815 261.789 548.415 261.962C549.215 262.176 549.868 262.396 550.375 262.622C550.895 262.836 551.341 263.156 551.715 263.582C552.088 264.009 552.281 264.576 552.295 265.282C552.295 265.909 552.121 266.469 551.775 266.962C551.428 267.456 550.935 267.842 550.295 268.122C549.668 268.402 548.928 268.542 548.075 268.542Z" fill="#231F20"/>
<rect x="440.915" y="237.231" width="43.8891" height="50.1631" rx="7.5" transform="rotate(-180 440.915 237.231)" fill="white" stroke="#333331" stroke-width="3"/>
<rect x="435.252" y="232.311" width="43.8891" height="50.1631" rx="7.5" transform="rotate(-180 435.252 232.311)" fill="white" stroke="#333331" stroke-width="3"/>
<rect x="429.589" y="227.102" width="43.8891" height="50.1631" rx="7.5" transform="rotate(-180 429.589 227.102)" fill="white" stroke="#333331" stroke-width="3"/>
<path d="M398.526 201.203L405.48 209.421L418.965 197.621" stroke="#333331" stroke-width="3" stroke-linecap="round" stroke-linejoin="round"/>
<path d="M75.2775 238.176V220.356L109.047 172.176H132.697V219.476H141.167V238.176H132.697V251.376H110.917V238.176H75.2775ZM112.567 196.486L97.3875 219.476H112.567V196.486Z" fill="#F7B919"/>
<path d="M174.002 229.51V250.57H168.872V237.94L164.162 250.57H160.022L155.282 237.91V250.57H150.152V229.51H156.212L162.122 244.09L167.972 229.51H174.002Z" fill="#F7B919"/>
<path d="M86.6095 143.994V145.854H82.9095V157.894H80.6295V145.854H76.9095V143.994H86.6095ZM99.0185 152.114C99.0185 152.528 98.9919 152.901 98.9385 153.234H90.5185C90.5852 154.114 90.9119 154.821 91.4985 155.354C92.0852 155.888 92.8052 156.154 93.6585 156.154C94.8852 156.154 95.7519 155.641 96.2585 154.614H98.7185C98.3852 155.628 97.7785 156.461 96.8985 157.114C96.0319 157.754 94.9519 158.074 93.6585 158.074C92.6052 158.074 91.6585 157.841 90.8185 157.374C89.9919 156.894 89.3385 156.228 88.8585 155.374C88.3919 154.508 88.1585 153.508 88.1585 152.374C88.1585 151.241 88.3852 150.248 88.8385 149.394C89.3052 148.528 89.9519 147.861 90.7785 147.394C91.6185 146.928 92.5785 146.694 93.6585 146.694C94.6985 146.694 95.6252 146.921 96.4385 147.374C97.2519 147.828 97.8852 148.468 98.3385 149.294C98.7919 150.108 99.0185 151.048 99.0185 152.114ZM96.6385 151.394C96.6252 150.554 96.3252 149.881 95.7385 149.374C95.1519 148.868 94.4252 148.614 93.5585 148.614C92.7719 148.614 92.0985 148.868 91.5385 149.374C90.9785 149.868 90.6452 150.541 90.5385 151.394H96.6385ZM105.262 158.074C104.396 158.074 103.616 157.921 102.922 157.614C102.242 157.294 101.702 156.868 101.302 156.334C100.902 155.788 100.689 155.181 100.662 154.514H103.022C103.062 154.981 103.282 155.374 103.682 155.694C104.096 156.001 104.609 156.154 105.222 156.154C105.862 156.154 106.356 156.034 106.702 155.794C107.062 155.541 107.242 155.221 107.242 154.834C107.242 154.421 107.042 154.114 106.642 153.914C106.256 153.714 105.636 153.494 104.782 153.254C103.956 153.028 103.282 152.808 102.762 152.594C102.242 152.381 101.789 152.054 101.402 151.614C101.029 151.174 100.842 150.594 100.842 149.874C100.842 149.288 101.016 148.754 101.362 148.274C101.709 147.781 102.202 147.394 102.842 147.114C103.496 146.834 104.242 146.694 105.082 146.694C106.336 146.694 107.342 147.014 108.102 147.654C108.876 148.281 109.289 149.141 109.342 150.234H107.062C107.022 149.741 106.822 149.348 106.462 149.054C106.102 148.761 105.616 148.614 105.002 148.614C104.402 148.614 103.942 148.728 103.622 148.954C103.302 149.181 103.142 149.481 103.142 149.854C103.142 150.148 103.249 150.394 103.462 150.594C103.676 150.794 103.936 150.954 104.242 151.074C104.549 151.181 105.002 151.321 105.602 151.494C106.402 151.708 107.056 151.928 107.562 152.154C108.082 152.368 108.529 152.688 108.902 153.114C109.276 153.541 109.469 154.108 109.482 154.814C109.482 155.441 109.309 156.001 108.962 156.494C108.616 156.988 108.122 157.374 107.482 157.654C106.856 157.934 106.116 158.074 105.262 158.074ZM114.606 148.734V154.834C114.606 155.248 114.699 155.548 114.886 155.734C115.086 155.908 115.419 155.994 115.886 155.994H117.286V157.894H115.486C114.459 157.894 113.673 157.654 113.126 157.174C112.579 156.694 112.306 155.914 112.306 154.834V148.734H111.006V146.874H112.306V144.134H114.606V146.874H117.286V148.734H114.606ZM133.563 143.994V145.854H129.863V157.894H127.583V145.854H123.863V143.994H133.563ZM135.112 152.334C135.112 151.228 135.338 150.248 135.792 149.394C136.258 148.541 136.885 147.881 137.672 147.414C138.472 146.934 139.352 146.694 140.312 146.694C141.178 146.694 141.932 146.868 142.572 147.214C143.225 147.548 143.745 147.968 144.132 148.474V146.874H146.432V157.894H144.132V156.254C143.745 156.774 143.218 157.208 142.552 157.554C141.885 157.901 141.125 158.074 140.272 158.074C139.325 158.074 138.458 157.834 137.672 157.354C136.885 156.861 136.258 156.181 135.792 155.314C135.338 154.434 135.112 153.441 135.112 152.334ZM144.132 152.374C144.132 151.614 143.972 150.954 143.652 150.394C143.345 149.834 142.938 149.408 142.432 149.114C141.925 148.821 141.378 148.674 140.792 148.674C140.205 148.674 139.658 148.821 139.152 149.114C138.645 149.394 138.232 149.814 137.912 150.374C137.605 150.921 137.452 151.574 137.452 152.334C137.452 153.094 137.605 153.761 137.912 154.334C138.232 154.908 138.645 155.348 139.152 155.654C139.672 155.948 140.218 156.094 140.792 156.094C141.378 156.094 141.925 155.948 142.432 155.654C142.938 155.361 143.345 154.934 143.652 154.374C143.972 153.801 144.132 153.134 144.132 152.374ZM153.786 152.394L158.866 157.894H155.786L151.706 153.154V157.894H149.426V143.094H151.706V151.694L155.706 146.874H158.866L153.786 152.394ZM170.601 152.114C170.601 152.528 170.574 152.901 170.521 153.234H162.101C162.167 154.114 162.494 154.821 163.081 155.354C163.667 155.888 164.387 156.154 165.241 156.154C166.467 156.154 167.334 155.641 167.841 154.614H170.301C169.967 155.628 169.361 156.461 168.481 157.114C167.614 157.754 166.534 158.074 165.241 158.074C164.187 158.074 163.241 157.841 162.401 157.374C161.574 156.894 160.921 156.228 160.441 155.374C159.974 154.508 159.741 153.508 159.741 152.374C159.741 151.241 159.967 150.248 160.421 149.394C160.887 148.528 161.534 147.861 162.361 147.394C163.201 146.928 164.161 146.694 165.241 146.694C166.281 146.694 167.207 146.921 168.021 147.374C168.834 147.828 169.467 148.468 169.921 149.294C170.374 150.108 170.601 151.048 170.601 152.114ZM168.221 151.394C168.207 150.554 167.907 149.881 167.321 149.374C166.734 148.868 166.007 148.614 165.141 148.614C164.354 148.614 163.681 148.868 163.121 149.374C162.561 149.868 162.227 150.541 162.121 151.394H168.221ZM175.124 148.474C175.458 147.914 175.898 147.481 176.444 147.174C177.004 146.854 177.664 146.694 178.424 146.694V149.054H177.844C176.951 149.054 176.271 149.281 175.804 149.734C175.351 150.188 175.124 150.974 175.124 152.094V157.894H172.844V146.874H175.124V148.474ZM184.52 158.074C183.653 158.074 182.873 157.921 182.18 157.614C181.5 157.294 180.96 156.868 180.56 156.334C180.16 155.788 179.947 155.181 179.92 154.514H182.28C182.32 154.981 182.54 155.374 182.94 155.694C183.353 156.001 183.867 156.154 184.48 156.154C185.12 156.154 185.613 156.034 185.96 155.794C186.32 155.541 186.5 155.221 186.5 154.834C186.5 154.421 186.3 154.114 185.9 153.914C185.513 153.714 184.893 153.494 184.04 153.254C183.213 153.028 182.54 152.808 182.02 152.594C181.5 152.381 181.047 152.054 180.66 151.614C180.287 151.174 180.1 150.594 180.1 149.874C180.1 149.288 180.273 148.754 180.62 148.274C180.967 147.781 181.46 147.394 182.1 147.114C182.753 146.834 183.5 146.694 184.34 146.694C185.593 146.694 186.6 147.014 187.36 147.654C188.133 148.281 188.547 149.141 188.6 150.234H186.32C186.28 149.741 186.08 149.348 185.72 149.054C185.36 148.761 184.873 148.614 184.26 148.614C183.66 148.614 183.2 148.728 182.88 148.954C182.56 149.181 182.4 149.481 182.4 149.854C182.4 150.148 182.507 150.394 182.72 150.594C182.933 150.794 183.193 150.954 183.5 151.074C183.807 151.181 184.26 151.321 184.86 151.494C185.66 151.708 186.313 151.928 186.82 152.154C187.34 152.368 187.787 152.688 188.16 153.114C188.533 153.541 188.727 154.108 188.74 154.814C188.74 155.441 188.567 156.001 188.22 156.494C187.873 156.988 187.38 157.374 186.74 157.654C186.113 157.934 185.373 158.074 184.52 158.074Z" fill="#231F20"/>
<rect x="134.452" y="121.383" width="43.8891" height="50.1631" rx="7.5" transform="rotate(-180 134.452 121.383)" fill="white" stroke="#333331" stroke-width="3"/>
<rect x="128.789" y="116.463" width="43.8891" height="50.1631" rx="7.5" transform="rotate(-180 128.789 116.463)" fill="white" stroke="#333331" stroke-width="3"/>
<rect x="123.126" y="111.254" width="43.8891" height="50.1631" rx="7.5" transform="rotate(-180 123.126 111.254)" fill="white" stroke="#333331" stroke-width="3"/>
<circle cx="87.8437" cy="73.2097" r="2.07384" fill="#333331"/>
<line x1="96.1317" y1="73.3336" x2="115.253" y2="73.3336" stroke="#333331" stroke-width="3" stroke-linecap="round"/>
<circle cx="87.8437" cy="86.0112" r="2.07384" fill="#333331"/>
<line x1="96.1317" y1="86.1351" x2="115.253" y2="86.1351" stroke="#333331" stroke-width="3" stroke-linecap="round"/>
<circle cx="87.8437" cy="98.8127" r="2.07384" fill="#333331"/>
<line x1="96.1317" y1="98.9366" x2="115.253" y2="98.9366" stroke="#333331" stroke-width="3" stroke-linecap="round"/>
<path d="M207.603 242.146H199.553V250.446H190.153V242.146H182.053V233.296H190.153V224.946H199.553V233.296H207.603V242.146Z" fill="#F7B919"/>
<path d="M497.32 358.986H489.27V367.286H479.87V358.986H471.77V350.136H479.87V341.786H489.27V350.136H497.32V358.986Z" fill="#EC2846"/>
<path d="M459.462 345.726V366.786H454.332V354.156L449.622 366.786H445.482L440.742 354.126V366.786H435.612V345.726H441.672L447.582 360.306L453.432 345.726H459.462Z" fill="#EC2846"/>
<defs>
<filter id="filter0_d_202_10" x="0" y="0" width="380.254" height="408.358" filterUnits="userSpaceOnUse" color-interpolation-filters="sRGB">
<feFlood flood-opacity="0" result="BackgroundImageFix"/>
<feColorMatrix in="SourceAlpha" type="matrix" values="0 0 0 0 0 0 0 0 0 0 0 0 0 0 0 0 0 0 127 0" result="hardAlpha"/>
<feMorphology radius="10" operator="dilate" in="SourceAlpha" result="effect1_dropShadow_202_10"/>
<feOffset dy="20"/>
<feGaussianBlur stdDeviation="20"/>
<feComposite in2="hardAlpha" operator="out"/>
<feColorMatrix type="matrix" values="0 0 0 0 0 0 0 0 0 0 0 0 0 0 0 0 0 0 0.05 0"/>
<feBlend mode="normal" in2="BackgroundImageFix" result="effect1_dropShadow_202_10"/>
<feBlend mode="normal" in="SourceGraphic" in2="effect1_dropShadow_202_10" result="shape"/>
</filter>
<filter id="filter1_d_202_10" x="299" y="128" width="380.254" height="408.361" filterUnits="userSpaceOnUse" color-interpolation-filters="sRGB">
<feFlood flood-opacity="0" result="BackgroundImageFix"/>
<feColorMatrix in="SourceAlpha" type="matrix" values="0 0 0 0 0 0 0 0 0 0 0 0 0 0 0 0 0 0 127 0" result="hardAlpha"/>
<feMorphology radius="10" operator="dilate" in="SourceAlpha" result="effect1_dropShadow_202_10"/>
<feOffset dy="20"/>
<feGaussianBlur stdDeviation="20"/>
<feComposite in2="hardAlpha" operator="out"/>
<feColorMatrix type="matrix" values="0 0 0 0 0 0 0 0 0 0 0 0 0 0 0 0 0 0 0.05 0"/>
<feBlend mode="normal" in2="BackgroundImageFix" result="effect1_dropShadow_202_10"/>
<feBlend mode="normal" in="SourceGraphic" in2="effect1_dropShadow_202_10" result="shape"/>
</filter>
</defs>
</svg>
