<svg width="348" height="52" viewBox="0 0 348 52" fill="none" xmlns="http://www.w3.org/2000/svg">
<path d="M76.6809 39.0897L58.7895 12.3969L9.15527 20.3326L42.4852 41.3983L76.6809 39.0897Z" fill="#ED2582"/>
<path opacity="0.3" d="M9.15527 20.3326L76.6809 39.0897L42.4852 41.3983L9.15527 20.3326Z" fill="#231F20"/>
<path opacity="0.3" d="M58.7895 12.3969L9.15527 20.3326L66.8694 24.5169L58.7895 12.3969Z" fill="white"/>
<path d="M67.4469 33.6069L46.6698 22.6412L11.6084 44.284L46.3812 43.7069L67.4469 33.6069Z" fill="#E8E9E9"/>
<path d="M11.6084 44.284L67.4469 33.6069L46.3812 43.7069L11.6084 44.284Z" fill="#BEBFC2"/>
<path opacity="0.3" d="M46.6698 22.6412L11.6084 44.284L56.0483 27.5469L46.6698 22.6412Z" fill="white"/>
<path d="M89.9554 26.1041L84.6169 8.35696L52.7298 0.421265L68.6012 19.1784L89.9554 26.1041Z" fill="#6CC4A0"/>
<path opacity="0.3" d="M52.7298 0.421265L89.9554 26.1041L68.6012 19.1784L52.7298 0.421265Z" fill="#231F20"/>
<path opacity="0.3" d="M84.6169 8.35696L52.7298 0.421265L87.0697 16.2927L84.6169 8.35696Z" fill="white"/>
<path d="M0.642578 30.144L81.8753 48.324L83.0296 6.91406L0.642578 30.144Z" fill="url(#paint0_linear_2_61)"/>
<path opacity="0.3" d="M54.3168 34.9054L0.642578 30.144L83.0296 6.91406L54.3168 34.9054Z" fill="white"/>
<path opacity="0.4" d="M0.642578 30.144L70.0439 19.7555L83.0296 6.91406L0.642578 30.144Z" fill="white"/>
<path opacity="0.5" d="M81.8752 48.324L54.3167 34.9054L83.0295 6.91406L81.8752 48.324Z" fill="#D02C27"/>
<path d="M54.7496 24.0841L68.8896 12.397L20.8425 11.387L54.7496 24.0841Z" fill="#A9DA0C"/>
<path d="M20.8425 11.387L42.9182 22.9298L54.7496 24.0841L20.8425 11.387Z" fill="#65BC46"/>
<path opacity="0.3" d="M68.8896 12.397L20.8425 11.387L61.8196 18.1684L68.8896 12.397Z" fill="white"/>
<path opacity="0.5" d="M54.7496 24.0841L21.8525 29.8555L42.9182 22.9298L54.7496 24.0841Z" fill="#231F20"/>
<path d="M64.2726 21.1984L56.3369 28.4126L44.7941 21.6312L64.2726 21.1984Z" fill="#DCDDDE"/>
<path d="M56.3369 28.4126L49.9883 28.2684L44.7941 21.6312L56.3369 28.4126Z" fill="#A1A3A6"/>
<path opacity="0.3" d="M44.7941 21.6312L59.944 25.2384L64.2726 21.1984L44.7941 21.6312Z" fill="white"/>
<path opacity="0.5" d="M56.3368 28.4126L41.0425 31.7312L49.9882 28.2683L56.3368 28.4126Z" fill="#231F20"/>
<path opacity="0.2" d="M49.8438 38.2241L44.9381 39.9555L50.9981 41.3983L49.8438 38.2241Z" fill="#231F20"/>
<path d="M56.481 38.5126L49.8439 38.2241L32.6739 51.6426L68.8895 43.9955L56.481 38.5126Z" fill="#6CC4A0"/>
<path opacity="0.3" d="M32.6739 51.6426L49.8439 38.2241L56.481 38.5126L32.6739 51.6426Z" fill="white"/>
<path opacity="0.3" d="M32.6739 51.6426L62.3967 41.1097L68.8895 43.9954L32.6739 51.6426Z" fill="#231F20"/>
<path opacity="0.1" d="M54.3167 34.9054L66.4367 40.8212L82.0195 43.274L82.8852 13.2626L68.0238 21.4869L54.3167 34.9054Z" fill="#231F20"/>
<path d="M83.0294 6.91406L69.0338 26.9697L81.8752 48.324L103.085 42.5526L109.867 28.5569L103.085 12.9741L83.0294 6.91406Z" fill="#48373F"/>
<path d="M83.0294 6.91406L69.0338 26.9697L81.8752 48.324L103.085 42.5526L109.867 28.5569L103.085 12.9741L83.0294 6.91406Z" fill="url(#paint1_radial_2_61)"/>
<path d="M83.0294 6.91406L82.8851 7.05835L62.5409 31.154L81.8751 48.324L69.0337 26.9697L83.0294 6.91406Z" fill="#35111F"/>
<path d="M77.691 48.1798V7.77985H100.2V13.407H84.1839V23.507H100.2V29.2784H84.1839V48.1798H77.691Z" fill="#EDEDEE"/>
<path d="M84.9054 48.9012H76.8254V7.05841H100.777V14.1284H84.9054V22.6412H100.921V29.8555H84.9054V48.9012ZM78.4125 47.4583H83.4625V28.4127H99.4782V24.0841H83.4625V12.5413H99.4782V8.50127H78.4125V47.4583Z" fill="#EDEDEE"/>
<path opacity="0.2" d="M69.0338 26.9698L109.867 28.5569L103.085 42.5526L81.8752 48.324L69.0338 26.9698Z" fill="#231F20"/>
<path opacity="0.2" d="M69.0338 26.9698L103.085 42.5526L81.8752 48.324L69.0338 26.9698Z" fill="#231F20"/>
<path opacity="0.3" d="M83.0297 6.91406L109.867 28.5569L103.085 12.9741L83.0297 6.91406Z" fill="white"/>
<path d="M133.327 17.6755V21.7855H124.747V26.2255H131.167V30.2155H124.747V38.7355H119.617V17.6755H133.327ZM141.153 16.5355V38.7355H136.023V16.5355H141.153ZM143.851 30.3355C143.851 28.6155 144.171 27.1055 144.811 25.8055C145.471 24.5055 146.361 23.5055 147.481 22.8055C148.601 22.1055 149.851 21.7555 151.231 21.7555C152.411 21.7555 153.441 21.9955 154.321 22.4755C155.221 22.9555 155.911 23.5855 156.391 24.3655V21.9955H161.521V38.7355H156.391V36.3655C155.891 37.1455 155.191 37.7755 154.291 38.2555C153.411 38.7355 152.381 38.9755 151.201 38.9755C149.841 38.9755 148.601 38.6255 147.481 37.9255C146.361 37.2055 145.471 36.1955 144.811 34.8955C144.171 33.5755 143.851 32.0555 143.851 30.3355ZM156.391 30.3655C156.391 29.0855 156.031 28.0755 155.311 27.3355C154.611 26.5955 153.751 26.2255 152.731 26.2255C151.711 26.2255 150.841 26.5955 150.121 27.3355C149.421 28.0555 149.071 29.0555 149.071 30.3355C149.071 31.6155 149.421 32.6355 150.121 33.3955C150.841 34.1355 151.711 34.5055 152.731 34.5055C153.751 34.5055 154.611 34.1355 155.311 33.3955C156.031 32.6555 156.391 31.6455 156.391 30.3655ZM172.042 38.9755C170.582 38.9755 169.282 38.7255 168.142 38.2255C167.002 37.7255 166.102 37.0455 165.442 36.1855C164.782 35.3055 164.412 34.3255 164.332 33.2455H169.402C169.462 33.8255 169.732 34.2955 170.212 34.6555C170.692 35.0155 171.282 35.1955 171.982 35.1955C172.622 35.1955 173.112 35.0755 173.452 34.8355C173.812 34.5755 173.992 34.2455 173.992 33.8455C173.992 33.3655 173.742 33.0155 173.242 32.7955C172.742 32.5555 171.932 32.2955 170.812 32.0155C169.612 31.7355 168.612 31.4455 167.812 31.1455C167.012 30.8255 166.322 30.3355 165.742 29.6755C165.162 28.9955 164.872 28.0855 164.872 26.9455C164.872 25.9855 165.132 25.1155 165.652 24.3355C166.192 23.5355 166.972 22.9055 167.992 22.4455C169.032 21.9855 170.262 21.7555 171.682 21.7555C173.782 21.7555 175.432 22.2755 176.632 23.3155C177.852 24.3555 178.552 25.7355 178.732 27.4555H173.992C173.912 26.8755 173.652 26.4155 173.212 26.0755C172.792 25.7355 172.232 25.5655 171.532 25.5655C170.932 25.5655 170.472 25.6855 170.152 25.9255C169.832 26.1455 169.672 26.4555 169.672 26.8555C169.672 27.3355 169.922 27.6955 170.422 27.9355C170.942 28.1755 171.742 28.4155 172.822 28.6555C174.062 28.9755 175.072 29.2955 175.852 29.6155C176.632 29.9155 177.312 30.4155 177.892 31.1155C178.492 31.7955 178.802 32.7155 178.822 33.8755C178.822 34.8555 178.542 35.7355 177.982 36.5155C177.442 37.2755 176.652 37.8755 175.612 38.3155C174.592 38.7555 173.402 38.9755 172.042 38.9755ZM192.251 21.8155C194.171 21.8155 195.711 22.4555 196.871 23.7355C198.031 24.9955 198.611 26.7355 198.611 28.9555V38.7355H193.511V29.6455C193.511 28.5255 193.221 27.6555 192.641 27.0355C192.061 26.4155 191.281 26.1055 190.301 26.1055C189.321 26.1055 188.541 26.4155 187.961 27.0355C187.381 27.6555 187.091 28.5255 187.091 29.6455V38.7355H181.961V16.5355H187.091V24.2455C187.611 23.5055 188.321 22.9155 189.221 22.4755C190.121 22.0355 191.131 21.8155 192.251 21.8155ZM217.326 17.6755V21.7855H211.746V38.7355H206.616V21.7855H201.036V17.6755H217.326ZM235.68 30.0955C235.68 30.5755 235.65 31.0755 235.59 31.5955H223.98C224.06 32.6355 224.39 33.4355 224.97 33.9955C225.57 34.5355 226.3 34.8055 227.16 34.8055C228.44 34.8055 229.33 34.2655 229.83 33.1855H235.29C235.01 34.2855 234.5 35.2755 233.76 36.1555C233.04 37.0355 232.13 37.7255 231.03 38.2255C229.93 38.7255 228.7 38.9755 227.34 38.9755C225.7 38.9755 224.24 38.6255 222.96 37.9255C221.68 37.2255 220.68 36.2255 219.96 34.9255C219.24 33.6255 218.88 32.1055 218.88 30.3655C218.88 28.6255 219.23 27.1055 219.93 25.8055C220.65 24.5055 221.65 23.5055 222.93 22.8055C224.21 22.1055 225.68 21.7555 227.34 21.7555C228.96 21.7555 230.4 22.0955 231.66 22.7755C232.92 23.4555 233.9 24.4255 234.6 25.6855C235.32 26.9455 235.68 28.4155 235.68 30.0955ZM230.43 28.7455C230.43 27.8655 230.13 27.1655 229.53 26.6455C228.93 26.1255 228.18 25.8655 227.28 25.8655C226.42 25.8655 225.69 26.1155 225.09 26.6155C224.51 27.1155 224.15 27.8255 224.01 28.7455H230.43ZM245.196 38.9755C243.736 38.9755 242.436 38.7255 241.296 38.2255C240.156 37.7255 239.256 37.0455 238.596 36.1855C237.936 35.3055 237.566 34.3255 237.486 33.2455H242.556C242.616 33.8255 242.886 34.2955 243.366 34.6555C243.846 35.0155 244.436 35.1955 245.136 35.1955C245.776 35.1955 246.266 35.0755 246.606 34.8355C246.966 34.5755 247.146 34.2455 247.146 33.8455C247.146 33.3655 246.896 33.0155 246.396 32.7955C245.896 32.5555 245.086 32.2955 243.966 32.0155C242.766 31.7355 241.766 31.4455 240.966 31.1455C240.166 30.8255 239.476 30.3355 238.896 29.6755C238.316 28.9955 238.026 28.0855 238.026 26.9455C238.026 25.9855 238.286 25.1155 238.806 24.3355C239.346 23.5355 240.126 22.9055 241.146 22.4455C242.186 21.9855 243.416 21.7555 244.836 21.7555C246.936 21.7555 248.586 22.2755 249.786 23.3155C251.006 24.3555 251.706 25.7355 251.886 27.4555H247.146C247.066 26.8755 246.806 26.4155 246.366 26.0755C245.946 25.7355 245.386 25.5655 244.686 25.5655C244.086 25.5655 243.626 25.6855 243.306 25.9255C242.986 26.1455 242.826 26.4555 242.826 26.8555C242.826 27.3355 243.076 27.6955 243.576 27.9355C244.096 28.1755 244.896 28.4155 245.976 28.6555C247.216 28.9755 248.226 29.2955 249.006 29.6155C249.786 29.9155 250.466 30.4155 251.046 31.1155C251.646 31.7955 251.956 32.7155 251.976 33.8755C251.976 34.8555 251.696 35.7355 251.136 36.5155C250.596 37.2755 249.806 37.8755 248.766 38.3155C247.746 38.7555 246.556 38.9755 245.196 38.9755ZM264.445 34.3855V38.7355H261.835C259.975 38.7355 258.525 38.2855 257.485 37.3855C256.445 36.4655 255.925 34.9755 255.925 32.9155V26.2555H253.885V21.9955H255.925V17.9155H261.055V21.9955H264.415V26.2555H261.055V32.9755C261.055 33.4755 261.175 33.8355 261.415 34.0555C261.655 34.2755 262.055 34.3855 262.615 34.3855H264.445ZM274.113 38.9755C272.653 38.9755 271.353 38.7255 270.213 38.2255C269.073 37.7255 268.173 37.0455 267.513 36.1855C266.853 35.3055 266.483 34.3255 266.403 33.2455H271.473C271.533 33.8255 271.803 34.2955 272.283 34.6555C272.763 35.0155 273.353 35.1955 274.053 35.1955C274.693 35.1955 275.183 35.0755 275.523 34.8355C275.883 34.5755 276.063 34.2455 276.063 33.8455C276.063 33.3655 275.813 33.0155 275.313 32.7955C274.813 32.5555 274.003 32.2955 272.883 32.0155C271.683 31.7355 270.683 31.4455 269.883 31.1455C269.083 30.8255 268.393 30.3355 267.813 29.6755C267.233 28.9955 266.943 28.0855 266.943 26.9455C266.943 25.9855 267.203 25.1155 267.723 24.3355C268.263 23.5355 269.043 22.9055 270.063 22.4455C271.103 21.9855 272.333 21.7555 273.753 21.7555C275.853 21.7555 277.503 22.2755 278.703 23.3155C279.923 24.3555 280.623 25.7355 280.803 27.4555H276.063C275.983 26.8755 275.723 26.4155 275.283 26.0755C274.863 25.7355 274.303 25.5655 273.603 25.5655C273.003 25.5655 272.543 25.6855 272.223 25.9255C271.903 26.1455 271.743 26.4555 271.743 26.8555C271.743 27.3355 271.993 27.6955 272.493 27.9355C273.013 28.1755 273.813 28.4155 274.893 28.6555C276.133 28.9755 277.143 29.2955 277.923 29.6155C278.703 29.9155 279.383 30.4155 279.963 31.1155C280.563 31.7955 280.873 32.7155 280.893 33.8755C280.893 34.8555 280.613 35.7355 280.053 36.5155C279.513 37.2755 278.723 37.8755 277.683 38.3155C276.663 38.7555 275.473 38.9755 274.113 38.9755Z" fill="#231F20"/>
<defs>
<linearGradient id="paint0_linear_2_61" x1="38.3358" y1="14.1338" x2="87.7874" y2="75.8258" gradientUnits="userSpaceOnUse">
<stop stop-color="#FBAA19"/>
<stop offset="0.3065" stop-color="#EE2424"/>
<stop offset="1" stop-color="#813092"/>
</linearGradient>
<radialGradient id="paint1_radial_2_61" cx="0" cy="0" r="1" gradientUnits="userSpaceOnUse" gradientTransform="translate(121.873 51.5234) scale(43.1203)">
<stop offset="0.2864" stop-color="#EC008C"/>
<stop offset="0.4297" stop-color="#B3006A"/>
<stop offset="0.6353" stop-color="#67003D"/>
<stop offset="0.8057" stop-color="#2F001C"/>
<stop offset="0.9319" stop-color="#0D0008"/>
<stop offset="1"/>
</radialGradient>
</defs>
</svg>
